<svg width="1024" height="1024" viewBox="0 0 1024 1024" xmlns="http://www.w3.org/2000/svg">
  <defs>
    <linearGradient id="blueGradient" x1="0%" y1="0%" x2="100%" y2="100%">
      <stop offset="0%" style="stop-color:#4FC3F7;stop-opacity:1" />
      <stop offset="50%" style="stop-color:#2196F3;stop-opacity:1" />
      <stop offset="100%" style="stop-color:#1565C0;stop-opacity:1" />
    </linearGradient>
    <filter id="shadow" x="-50%" y="-50%" width="200%" height="200%">
      <feDropShadow dx="0" dy="8" stdDeviation="12" flood-color="rgba(0,0,0,0.3)"/>
    </filter>
  </defs>
  
  <!-- Rounded rectangle background with proper macOS corner radius -->
  <rect x="32" y="32" width="960" height="960" rx="180" ry="180" fill="url(#blueGradient)" filter="url(#shadow)"/>
  
  <!-- Clockwise arrow (top-right) -->
  <path d="M 512 220 
           A 220 220 0 0 1 732 440
           L 700 440
           A 188 188 0 0 0 512 252
           L 512 190
           L 460 242
           L 512 294
           L 512 252" 
           fill="white" 
           opacity="0.95"
           stroke="rgba(255,255,255,0.2)" 
           stroke-width="2"/>
  
  <!-- Counter-clockwise arrow (bottom-left) -->
  <path d="M 512 804 
           A 220 220 0 0 1 292 584
           L 324 584
           A 188 188 0 0 0 512 772
           L 512 834
           L 564 782
           L 512 730
           L 512 772" 
           fill="white" 
           opacity="0.95"
           stroke="rgba(255,255,255,0.2)" 
           stroke-width="2"/>
</svg> 